M48
;DRILL file {KiCad 6.0.0-rc1-unknown-f68581d~66~ubuntu16.04.1} date Thu Sep 27 13:32:51 2018
;FORMAT={-:-/ absolute / inch / decimal}
FMAT,2
INCH
T1C0.0394
%
G90
G05
M72
T1
X4.7019Y-2.6619
X4.7019Y-2.7619
X4.7019Y-2.8619
X4.7019Y-2.9619
X4.7019Y-3.0619
X4.7019Y-3.1619
X4.7019Y-3.2619
X4.7019Y-3.3619
X4.7019Y-3.4619
X4.7019Y-3.5619
X4.7019Y-3.6619
X4.7019Y-3.7619
X4.7019Y-3.8619
X4.7019Y-3.9619
X4.7019Y-4.0619
X4.7019Y-4.1619
X4.7019Y-4.2619
X4.7019Y-4.3619
X4.7019Y-4.4619
X4.7019Y-4.5619
X4.8019Y-2.6619
X4.8019Y-2.7619
X4.8019Y-2.8619
X4.8019Y-2.9619
X4.8019Y-3.0619
X4.8019Y-3.1619
X4.8019Y-3.2619
X4.8019Y-3.3619
X4.8019Y-3.4619
X4.8019Y-3.5619
X4.8019Y-3.6619
X4.8019Y-3.7619
X4.8019Y-3.8619
X4.8019Y-3.9619
X4.8019Y-4.0619
X4.8019Y-4.1619
X4.8019Y-4.2619
X4.8019Y-4.3619
X4.8019Y-4.4619
X4.8019Y-4.5619
X5.47Y-3.15
X5.47Y-3.25
X5.47Y-3.35
X5.47Y-3.45
X5.47Y-3.55
X5.47Y-3.65
X5.47Y-3.75
X5.47Y-3.85
X5.47Y-3.95
X5.47Y-4.05
T0
M30
