M48
;DRILL file {KiCad 5.0.0-rc2-dev-unknown-5e5e80d~64~ubuntu16.04.1} date Fri Jul 20 09:57:50 2018
;FORMAT={-:-/ absolute / inch / decimal}
FMAT,2
INCH,TZ
T1C0.0394
%
G90
G05
M72
T1
X4.8936Y-3.6294
X4.8936Y-3.7294
X4.8936Y-3.8294
X4.8936Y-3.9294
X4.8936Y-4.0294
X4.8936Y-4.1294
X4.8936Y-4.2294
X4.8936Y-4.3294
X4.8936Y-4.4294
X4.8936Y-4.5294
X4.8936Y-4.6294
X4.8936Y-4.7294
X4.8936Y-4.8294
X4.8936Y-4.9294
X4.8936Y-5.0294
X4.8936Y-5.1294
X4.8936Y-5.2294
X4.8936Y-5.3294
X4.8936Y-5.4294
X4.8936Y-5.5294
X4.9936Y-3.6294
X4.9936Y-3.7294
X4.9936Y-3.8294
X4.9936Y-3.9294
X4.9936Y-4.0294
X4.9936Y-4.1294
X4.9936Y-4.2294
X4.9936Y-4.3294
X4.9936Y-4.4294
X4.9936Y-4.5294
X4.9936Y-4.6294
X4.9936Y-4.7294
X4.9936Y-4.8294
X4.9936Y-4.9294
X4.9936Y-5.0294
X4.9936Y-5.1294
X4.9936Y-5.2294
X4.9936Y-5.3294
X4.9936Y-5.4294
X4.9936Y-5.5294
X5.35Y-4.25
X5.35Y-4.35
X5.35Y-4.45
X5.35Y-4.55
X5.35Y-4.65
X5.35Y-4.75
X5.35Y-4.85
X5.35Y-4.95
T0
M30
