M48
;DRILL file {KiCad 5.0.0-rc2-dev-unknown-5e5e80d~64~ubuntu16.04.1} date Wed May  2 16:30:24 2018
;FORMAT={-:-/ absolute / inch / decimal}
FMAT,2
INCH,TZ
T1C0.0394
T2C0.0472
%
G90
G05
M72
T1
X4.8797Y-3.4294
X4.8797Y-3.5294
X4.8797Y-3.6294
X4.8797Y-3.7294
X4.8797Y-3.8294
X4.8797Y-3.9294
X4.8797Y-4.0294
X4.8797Y-4.1294
X4.8797Y-4.2294
X4.8797Y-4.3294
X4.8797Y-4.4294
X4.8797Y-4.5294
X4.8797Y-4.6294
X4.8797Y-4.7294
X4.8797Y-4.8294
X4.8797Y-4.9294
X4.8797Y-5.0294
X4.8797Y-5.1294
X4.8797Y-5.2294
X4.8797Y-5.3294
X4.9797Y-3.4294
X4.9797Y-3.5294
X4.9797Y-3.6294
X4.9797Y-3.7294
X4.9797Y-3.8294
X4.9797Y-3.9294
X4.9797Y-4.0294
X4.9797Y-4.1294
X4.9797Y-4.2294
X4.9797Y-4.3294
X4.9797Y-4.4294
X4.9797Y-4.5294
X4.9797Y-4.6294
X4.9797Y-4.7294
X4.9797Y-4.8294
X4.9797Y-4.9294
X4.9797Y-5.0294
X4.9797Y-5.1294
X4.9797Y-5.2294
X4.9797Y-5.3294
T2
X5.25Y-4.2
X5.25Y-4.3
X5.25Y-4.4
X5.25Y-4.5
X5.25Y-4.6
T0
M30
