G04 #@! TF.GenerationSoftware,KiCad,Pcbnew,5.0.0-rc2-dev-unknown-5e5e80d~64~ubuntu16.04.1*
G04 #@! TF.CreationDate,2018-05-07T09:41:14-03:00*
G04 #@! TF.ProjectId,audio_2,617564696F5F322E6B696361645F7063,rev?*
G04 #@! TF.SameCoordinates,Original*
G04 #@! TF.FileFunction,Copper,L1,Top,Signal*
G04 #@! TF.FilePolarity,Positive*
%FSLAX46Y46*%
G04 Gerber Fmt 4.6, Leading zero omitted, Abs format (unit mm)*
G04 Created by KiCad (PCBNEW 5.0.0-rc2-dev-unknown-5e5e80d~64~ubuntu16.04.1) date Mon May  7 09:41:14 2018*
%MOMM*%
%LPD*%
G01*
G04 APERTURE LIST*
%ADD10O,1.700000X1.700000*%
%ADD11R,1.700000X1.700000*%
%ADD12O,2.600000X2.000000*%
%ADD13R,2.600000X2.000000*%
%ADD14C,0.600000*%
G04 APERTURE END LIST*
D10*
X126485001Y-135367500D03*
X123945001Y-135367500D03*
X126485001Y-132827500D03*
X123945001Y-132827500D03*
X126485001Y-130287500D03*
X123945001Y-130287500D03*
X126485001Y-127747500D03*
X123945001Y-127747500D03*
X126485001Y-125207500D03*
X123945001Y-125207500D03*
X126485001Y-122667500D03*
X123945001Y-122667500D03*
X126485001Y-120127500D03*
X123945001Y-120127500D03*
X126485001Y-117587500D03*
X123945001Y-117587500D03*
X126485001Y-115047500D03*
X123945001Y-115047500D03*
X126485001Y-112507500D03*
X123945001Y-112507500D03*
X126485001Y-109967500D03*
X123945001Y-109967500D03*
X126485001Y-107427500D03*
X123945001Y-107427500D03*
X126485001Y-104887500D03*
X123945001Y-104887500D03*
X126485001Y-102347500D03*
X123945001Y-102347500D03*
X126485001Y-99807500D03*
X123945001Y-99807500D03*
X126485001Y-97267500D03*
X123945001Y-97267500D03*
X126485001Y-94727500D03*
X123945001Y-94727500D03*
X126485001Y-92187500D03*
X123945001Y-92187500D03*
X126485001Y-89647500D03*
X123945001Y-89647500D03*
X126485001Y-87107500D03*
D11*
X123945001Y-87107500D03*
D12*
X133350000Y-104140000D03*
X133350000Y-106680000D03*
X133350000Y-109220000D03*
X133350000Y-111760000D03*
X133350000Y-114300000D03*
D13*
X133350000Y-116840000D03*
D14*
X123945001Y-85657500D02*
X123945001Y-87107500D01*
X124245002Y-85357499D02*
X123945001Y-85657500D01*
X127325002Y-85357499D02*
X124245002Y-85357499D01*
X133350000Y-91382497D02*
X127325002Y-85357499D01*
X133350000Y-104140000D02*
X133350000Y-91382497D01*
X131149990Y-106379990D02*
X131450000Y-106680000D01*
X131450000Y-106680000D02*
X133350000Y-106680000D01*
X131149990Y-96852489D02*
X131149990Y-106379990D01*
X126485001Y-92187500D02*
X131149990Y-96852489D01*
X129435012Y-102757511D02*
X126485001Y-99807500D01*
X129435012Y-106362082D02*
X129435012Y-102757511D01*
X131652940Y-108580010D02*
X129435012Y-106362082D01*
X132710010Y-108580010D02*
X131652940Y-108580010D01*
X133350000Y-109220000D02*
X132710010Y-108580010D01*
X127335000Y-131977501D02*
X126485001Y-132827500D01*
X128235002Y-117514998D02*
X128235002Y-131077499D01*
X131450000Y-114300000D02*
X128235002Y-117514998D01*
X128235002Y-131077499D02*
X127335000Y-131977501D01*
X133350000Y-114300000D02*
X131450000Y-114300000D01*
X123095002Y-131137499D02*
X123945001Y-130287500D01*
X122195000Y-132037501D02*
X123095002Y-131137499D01*
X122195000Y-136207501D02*
X122195000Y-132037501D01*
X123105000Y-137117501D02*
X122195000Y-136207501D01*
X127325002Y-137117501D02*
X123105000Y-137117501D01*
X129435012Y-135007491D02*
X127325002Y-137117501D01*
X129435012Y-118854988D02*
X129435012Y-135007491D01*
X131450000Y-116840000D02*
X129435012Y-118854988D01*
X133350000Y-116840000D02*
X131450000Y-116840000D01*
X127335000Y-105737499D02*
X126485001Y-104887500D01*
X128235002Y-106637501D02*
X127335000Y-105737499D01*
X132262991Y-111120010D02*
X128235002Y-107092021D01*
X132710010Y-111120010D02*
X132262991Y-111120010D01*
X128235002Y-107092021D02*
X128235002Y-106637501D01*
X133350000Y-111760000D02*
X132710010Y-111120010D01*
M02*
