G04 #@! TF.GenerationSoftware,KiCad,Pcbnew,5.0.0-rc2-dev-unknown-5e5e80d~64~ubuntu16.04.1*
G04 #@! TF.CreationDate,2018-05-07T09:49:11-03:00*
G04 #@! TF.ProjectId,audio_1,617564696F5F312E6B696361645F7063,rev?*
G04 #@! TF.SameCoordinates,Original*
G04 #@! TF.FileFunction,Copper,L2,Bot,Signal*
G04 #@! TF.FilePolarity,Positive*
%FSLAX46Y46*%
G04 Gerber Fmt 4.6, Leading zero omitted, Abs format (unit mm)*
G04 Created by KiCad (PCBNEW 5.0.0-rc2-dev-unknown-5e5e80d~64~ubuntu16.04.1) date Mon May  7 09:49:11 2018*
%MOMM*%
%LPD*%
G01*
G04 APERTURE LIST*
%ADD10R,1.700000X1.700000*%
%ADD11O,1.700000X1.700000*%
%ADD12R,1.500000X0.900000*%
%ADD13O,1.500000X0.900000*%
%ADD14C,1.800000*%
%ADD15R,1.800000X1.800000*%
%ADD16R,2.000000X1.700000*%
%ADD17R,1.700000X2.000000*%
%ADD18O,2.600000X2.000000*%
%ADD19R,2.600000X2.000000*%
%ADD20C,1.600000*%
%ADD21C,0.600000*%
%ADD22C,0.254000*%
G04 APERTURE END LIST*
D10*
X171450000Y-95250000D03*
D11*
X171450000Y-97790000D03*
X171450000Y-100330000D03*
X171450000Y-102870000D03*
X171450000Y-105410000D03*
X171450000Y-107950000D03*
D12*
X167640000Y-100330000D03*
D13*
X167640000Y-102870000D03*
X167640000Y-101600000D03*
D11*
X171450000Y-125730000D03*
X171450000Y-123190000D03*
X171450000Y-120650000D03*
X171450000Y-118110000D03*
X171450000Y-115570000D03*
D10*
X171450000Y-113030000D03*
D14*
X163830000Y-101600000D03*
D15*
X163830000Y-99060000D03*
D16*
X166560000Y-96520000D03*
X162560000Y-96520000D03*
D17*
X167640000Y-108395000D03*
X167640000Y-112395000D03*
D18*
X163195000Y-119380000D03*
X163195000Y-116840000D03*
X163195000Y-114300000D03*
X163195000Y-111760000D03*
X163195000Y-109220000D03*
D19*
X163195000Y-106680000D03*
D20*
X161290000Y-93980000D03*
X168910000Y-97790000D03*
X169552605Y-110483477D03*
D21*
X166560000Y-95070000D02*
X164200000Y-92710000D01*
X166560000Y-96520000D02*
X166560000Y-95070000D01*
X164200000Y-92710000D02*
X162560000Y-92710000D01*
X162560000Y-92710000D02*
X161290000Y-93980000D01*
X163762081Y-116840000D02*
X162560000Y-116840000D01*
X169290010Y-99160008D02*
X169290010Y-103840000D01*
X168910000Y-98779998D02*
X169290010Y-99160008D01*
X169290010Y-103840000D02*
X168910000Y-104220010D01*
X168910000Y-97790000D02*
X168910000Y-98779998D01*
X166665002Y-116840000D02*
X169545000Y-113960002D01*
X163195000Y-116840000D02*
X166665002Y-116840000D01*
X169545000Y-110491082D02*
X169552605Y-110483477D01*
X169545000Y-113960002D02*
X169545000Y-110491082D01*
X169552605Y-104862615D02*
X168829990Y-104140000D01*
X169552605Y-110483477D02*
X169552605Y-104862615D01*
X168829990Y-104140000D02*
X167640000Y-102950010D01*
X168910000Y-104220010D02*
X168829990Y-104140000D01*
X162410000Y-96520000D02*
X162560000Y-96520000D01*
X160960000Y-97970000D02*
X162410000Y-96520000D01*
X160960000Y-100002792D02*
X160960000Y-97970000D01*
X162557208Y-101600000D02*
X160960000Y-100002792D01*
X163830000Y-101600000D02*
X162557208Y-101600000D01*
X166780808Y-100249990D02*
X167640000Y-100249990D01*
X166700798Y-100330000D02*
X166780808Y-100249990D01*
X166519990Y-100249990D02*
X166780808Y-100249990D01*
X165330000Y-99060000D02*
X166519990Y-100249990D01*
X163830000Y-99060000D02*
X165330000Y-99060000D01*
X162560000Y-106680000D02*
X164010000Y-106680000D01*
X167640000Y-112245000D02*
X167640000Y-112395000D01*
X165889999Y-108927980D02*
X165889999Y-110494999D01*
X165889999Y-110494999D02*
X167640000Y-112245000D01*
X164282009Y-107319990D02*
X165889999Y-108927980D01*
X163834990Y-107319990D02*
X164282009Y-107319990D01*
X163195000Y-106680000D02*
X163834990Y-107319990D01*
X165989990Y-102310808D02*
X166620797Y-101680001D01*
X165989990Y-103429192D02*
X165989990Y-102310808D01*
X167450000Y-108395000D02*
X166370000Y-107315000D01*
X166370000Y-103809202D02*
X165989990Y-103429192D01*
X167640000Y-108395000D02*
X167450000Y-108395000D01*
X166370000Y-107315000D02*
X166370000Y-103809202D01*
D22*
G36*
X175820001Y-126925000D02*
X172500080Y-126925000D01*
X172586953Y-126866953D01*
X172935501Y-126345315D01*
X173057895Y-125730000D01*
X172935501Y-125114685D01*
X172586953Y-124593047D01*
X172387834Y-124460000D01*
X172586953Y-124326953D01*
X172935501Y-123805315D01*
X173057895Y-123190000D01*
X172935501Y-122574685D01*
X172586953Y-122053047D01*
X172387834Y-121920000D01*
X172586953Y-121786953D01*
X172935501Y-121265315D01*
X173057895Y-120650000D01*
X172935501Y-120034685D01*
X172586953Y-119513047D01*
X172387834Y-119380000D01*
X172586953Y-119246953D01*
X172935501Y-118725315D01*
X173057895Y-118110000D01*
X172935501Y-117494685D01*
X172586953Y-116973047D01*
X172387834Y-116840000D01*
X172586953Y-116706953D01*
X172935501Y-116185315D01*
X173057895Y-115570000D01*
X172935501Y-114954685D01*
X172646807Y-114522625D01*
X172824137Y-114404137D01*
X172984818Y-114163661D01*
X173041242Y-113880000D01*
X173041242Y-112180000D01*
X172984818Y-111896339D01*
X172824137Y-111655863D01*
X172583661Y-111495182D01*
X172300000Y-111438758D01*
X170756828Y-111438758D01*
X170847133Y-111348453D01*
X171079605Y-110787216D01*
X171079605Y-110179738D01*
X170847133Y-109618501D01*
X170579605Y-109350973D01*
X170579605Y-109265062D01*
X170834685Y-109435501D01*
X171294681Y-109527000D01*
X171605319Y-109527000D01*
X172065315Y-109435501D01*
X172586953Y-109086953D01*
X172935501Y-108565315D01*
X173057895Y-107950000D01*
X172935501Y-107334685D01*
X172586953Y-106813047D01*
X172387834Y-106680000D01*
X172586953Y-106546953D01*
X172935501Y-106025315D01*
X173057895Y-105410000D01*
X172935501Y-104794685D01*
X172586953Y-104273047D01*
X172387834Y-104140000D01*
X172586953Y-104006953D01*
X172935501Y-103485315D01*
X173057895Y-102870000D01*
X172935501Y-102254685D01*
X172586953Y-101733047D01*
X172387834Y-101600000D01*
X172586953Y-101466953D01*
X172935501Y-100945315D01*
X173057895Y-100330000D01*
X172935501Y-99714685D01*
X172586953Y-99193047D01*
X172387834Y-99060000D01*
X172586953Y-98926953D01*
X172935501Y-98405315D01*
X173057895Y-97790000D01*
X172935501Y-97174685D01*
X172646807Y-96742625D01*
X172824137Y-96624137D01*
X172984818Y-96383661D01*
X173041242Y-96100000D01*
X173041242Y-94400000D01*
X172984818Y-94116339D01*
X172824137Y-93875863D01*
X172583661Y-93715182D01*
X172300000Y-93658758D01*
X170600000Y-93658758D01*
X170316339Y-93715182D01*
X170075863Y-93875863D01*
X169915182Y-94116339D01*
X169858758Y-94400000D01*
X169858758Y-96100000D01*
X169915182Y-96383661D01*
X170075863Y-96624137D01*
X170253193Y-96742625D01*
X170160642Y-96881138D01*
X169774976Y-96495472D01*
X169213739Y-96263000D01*
X168606261Y-96263000D01*
X168301242Y-96389343D01*
X168301242Y-95670000D01*
X168244818Y-95386339D01*
X168084137Y-95145863D01*
X167843661Y-94985182D01*
X167579809Y-94932698D01*
X167537585Y-94720425D01*
X167527413Y-94669285D01*
X167300426Y-94329574D01*
X167214672Y-94272275D01*
X164997726Y-92055330D01*
X164940426Y-91969574D01*
X164600715Y-91742587D01*
X164301150Y-91683000D01*
X164301149Y-91683000D01*
X164200000Y-91662880D01*
X164098851Y-91683000D01*
X162661148Y-91683000D01*
X162559999Y-91662880D01*
X162458850Y-91683000D01*
X162159285Y-91742587D01*
X162159284Y-91742588D01*
X162159283Y-91742588D01*
X162085828Y-91791669D01*
X161819574Y-91969574D01*
X161762275Y-92055328D01*
X161364603Y-92453000D01*
X160986261Y-92453000D01*
X160425024Y-92685472D01*
X159995472Y-93115024D01*
X159763000Y-93676261D01*
X159763000Y-94283739D01*
X159995472Y-94844976D01*
X160425024Y-95274528D01*
X160861463Y-95455307D01*
X160818758Y-95670000D01*
X160818758Y-96658846D01*
X160305328Y-97172276D01*
X160219575Y-97229574D01*
X160048063Y-97486261D01*
X159992588Y-97569285D01*
X159912880Y-97970000D01*
X159933001Y-98071154D01*
X159933000Y-99901643D01*
X159912880Y-100002792D01*
X159933000Y-100103941D01*
X159992587Y-100403506D01*
X160219574Y-100743218D01*
X160305330Y-100800518D01*
X161759483Y-102254672D01*
X161816782Y-102340426D01*
X161998402Y-102461780D01*
X162156491Y-102567412D01*
X162156492Y-102567412D01*
X162156493Y-102567413D01*
X162456058Y-102627000D01*
X162557207Y-102647120D01*
X162573044Y-102643970D01*
X162908378Y-102979304D01*
X163506370Y-103227000D01*
X164153630Y-103227000D01*
X164751622Y-102979304D01*
X164962991Y-102767935D01*
X164962990Y-103328042D01*
X164942870Y-103429192D01*
X164962990Y-103530341D01*
X165022577Y-103829906D01*
X165249564Y-104169618D01*
X165335320Y-104226918D01*
X165343001Y-104234599D01*
X165343000Y-106928585D01*
X165236242Y-106821827D01*
X165236242Y-105680000D01*
X165179818Y-105396339D01*
X165019137Y-105155863D01*
X164778661Y-104995182D01*
X164495000Y-104938758D01*
X161895000Y-104938758D01*
X161611339Y-104995182D01*
X161370863Y-105155863D01*
X161210182Y-105396339D01*
X161153758Y-105680000D01*
X161153758Y-107680000D01*
X161210182Y-107963661D01*
X161370863Y-108204137D01*
X161457882Y-108262282D01*
X161268202Y-108546158D01*
X161134167Y-109220000D01*
X161268202Y-109893842D01*
X161649903Y-110465097D01*
X161687173Y-110490000D01*
X161649903Y-110514903D01*
X161268202Y-111086158D01*
X161134167Y-111760000D01*
X161268202Y-112433842D01*
X161649903Y-113005097D01*
X161687173Y-113030000D01*
X161649903Y-113054903D01*
X161268202Y-113626158D01*
X161134167Y-114300000D01*
X161268202Y-114973842D01*
X161649903Y-115545097D01*
X161687173Y-115570000D01*
X161649903Y-115594903D01*
X161268202Y-116166158D01*
X161134167Y-116840000D01*
X161268202Y-117513842D01*
X161649903Y-118085097D01*
X161687173Y-118110000D01*
X161649903Y-118134903D01*
X161268202Y-118706158D01*
X161134167Y-119380000D01*
X161268202Y-120053842D01*
X161649903Y-120625097D01*
X162221158Y-121006798D01*
X162724909Y-121107000D01*
X163665091Y-121107000D01*
X164168842Y-121006798D01*
X164740097Y-120625097D01*
X165121798Y-120053842D01*
X165255833Y-119380000D01*
X165121798Y-118706158D01*
X164740097Y-118134903D01*
X164702827Y-118110000D01*
X164740097Y-118085097D01*
X164885825Y-117867000D01*
X166563853Y-117867000D01*
X166665002Y-117887120D01*
X166766151Y-117867000D01*
X166766152Y-117867000D01*
X167065717Y-117807413D01*
X167405428Y-117580426D01*
X167462728Y-117494670D01*
X169955010Y-115002389D01*
X169842105Y-115570000D01*
X169964499Y-116185315D01*
X170313047Y-116706953D01*
X170512166Y-116840000D01*
X170313047Y-116973047D01*
X169964499Y-117494685D01*
X169842105Y-118110000D01*
X169964499Y-118725315D01*
X170313047Y-119246953D01*
X170512166Y-119380000D01*
X170313047Y-119513047D01*
X169964499Y-120034685D01*
X169842105Y-120650000D01*
X169964499Y-121265315D01*
X170313047Y-121786953D01*
X170512166Y-121920000D01*
X170313047Y-122053047D01*
X169964499Y-122574685D01*
X169842105Y-123190000D01*
X169964499Y-123805315D01*
X170313047Y-124326953D01*
X170512166Y-124460000D01*
X170313047Y-124593047D01*
X169964499Y-125114685D01*
X169842105Y-125730000D01*
X169964499Y-126345315D01*
X170313047Y-126866953D01*
X170399920Y-126925000D01*
X158190000Y-126925000D01*
X158190000Y-90880000D01*
X175820000Y-90880000D01*
X175820001Y-126925000D01*
X175820001Y-126925000D01*
G37*
X175820001Y-126925000D02*
X172500080Y-126925000D01*
X172586953Y-126866953D01*
X172935501Y-126345315D01*
X173057895Y-125730000D01*
X172935501Y-125114685D01*
X172586953Y-124593047D01*
X172387834Y-124460000D01*
X172586953Y-124326953D01*
X172935501Y-123805315D01*
X173057895Y-123190000D01*
X172935501Y-122574685D01*
X172586953Y-122053047D01*
X172387834Y-121920000D01*
X172586953Y-121786953D01*
X172935501Y-121265315D01*
X173057895Y-120650000D01*
X172935501Y-120034685D01*
X172586953Y-119513047D01*
X172387834Y-119380000D01*
X172586953Y-119246953D01*
X172935501Y-118725315D01*
X173057895Y-118110000D01*
X172935501Y-117494685D01*
X172586953Y-116973047D01*
X172387834Y-116840000D01*
X172586953Y-116706953D01*
X172935501Y-116185315D01*
X173057895Y-115570000D01*
X172935501Y-114954685D01*
X172646807Y-114522625D01*
X172824137Y-114404137D01*
X172984818Y-114163661D01*
X173041242Y-113880000D01*
X173041242Y-112180000D01*
X172984818Y-111896339D01*
X172824137Y-111655863D01*
X172583661Y-111495182D01*
X172300000Y-111438758D01*
X170756828Y-111438758D01*
X170847133Y-111348453D01*
X171079605Y-110787216D01*
X171079605Y-110179738D01*
X170847133Y-109618501D01*
X170579605Y-109350973D01*
X170579605Y-109265062D01*
X170834685Y-109435501D01*
X171294681Y-109527000D01*
X171605319Y-109527000D01*
X172065315Y-109435501D01*
X172586953Y-109086953D01*
X172935501Y-108565315D01*
X173057895Y-107950000D01*
X172935501Y-107334685D01*
X172586953Y-106813047D01*
X172387834Y-106680000D01*
X172586953Y-106546953D01*
X172935501Y-106025315D01*
X173057895Y-105410000D01*
X172935501Y-104794685D01*
X172586953Y-104273047D01*
X172387834Y-104140000D01*
X172586953Y-104006953D01*
X172935501Y-103485315D01*
X173057895Y-102870000D01*
X172935501Y-102254685D01*
X172586953Y-101733047D01*
X172387834Y-101600000D01*
X172586953Y-101466953D01*
X172935501Y-100945315D01*
X173057895Y-100330000D01*
X172935501Y-99714685D01*
X172586953Y-99193047D01*
X172387834Y-99060000D01*
X172586953Y-98926953D01*
X172935501Y-98405315D01*
X173057895Y-97790000D01*
X172935501Y-97174685D01*
X172646807Y-96742625D01*
X172824137Y-96624137D01*
X172984818Y-96383661D01*
X173041242Y-96100000D01*
X173041242Y-94400000D01*
X172984818Y-94116339D01*
X172824137Y-93875863D01*
X172583661Y-93715182D01*
X172300000Y-93658758D01*
X170600000Y-93658758D01*
X170316339Y-93715182D01*
X170075863Y-93875863D01*
X169915182Y-94116339D01*
X169858758Y-94400000D01*
X169858758Y-96100000D01*
X169915182Y-96383661D01*
X170075863Y-96624137D01*
X170253193Y-96742625D01*
X170160642Y-96881138D01*
X169774976Y-96495472D01*
X169213739Y-96263000D01*
X168606261Y-96263000D01*
X168301242Y-96389343D01*
X168301242Y-95670000D01*
X168244818Y-95386339D01*
X168084137Y-95145863D01*
X167843661Y-94985182D01*
X167579809Y-94932698D01*
X167537585Y-94720425D01*
X167527413Y-94669285D01*
X167300426Y-94329574D01*
X167214672Y-94272275D01*
X164997726Y-92055330D01*
X164940426Y-91969574D01*
X164600715Y-91742587D01*
X164301150Y-91683000D01*
X164301149Y-91683000D01*
X164200000Y-91662880D01*
X164098851Y-91683000D01*
X162661148Y-91683000D01*
X162559999Y-91662880D01*
X162458850Y-91683000D01*
X162159285Y-91742587D01*
X162159284Y-91742588D01*
X162159283Y-91742588D01*
X162085828Y-91791669D01*
X161819574Y-91969574D01*
X161762275Y-92055328D01*
X161364603Y-92453000D01*
X160986261Y-92453000D01*
X160425024Y-92685472D01*
X159995472Y-93115024D01*
X159763000Y-93676261D01*
X159763000Y-94283739D01*
X159995472Y-94844976D01*
X160425024Y-95274528D01*
X160861463Y-95455307D01*
X160818758Y-95670000D01*
X160818758Y-96658846D01*
X160305328Y-97172276D01*
X160219575Y-97229574D01*
X160048063Y-97486261D01*
X159992588Y-97569285D01*
X159912880Y-97970000D01*
X159933001Y-98071154D01*
X159933000Y-99901643D01*
X159912880Y-100002792D01*
X159933000Y-100103941D01*
X159992587Y-100403506D01*
X160219574Y-100743218D01*
X160305330Y-100800518D01*
X161759483Y-102254672D01*
X161816782Y-102340426D01*
X161998402Y-102461780D01*
X162156491Y-102567412D01*
X162156492Y-102567412D01*
X162156493Y-102567413D01*
X162456058Y-102627000D01*
X162557207Y-102647120D01*
X162573044Y-102643970D01*
X162908378Y-102979304D01*
X163506370Y-103227000D01*
X164153630Y-103227000D01*
X164751622Y-102979304D01*
X164962991Y-102767935D01*
X164962990Y-103328042D01*
X164942870Y-103429192D01*
X164962990Y-103530341D01*
X165022577Y-103829906D01*
X165249564Y-104169618D01*
X165335320Y-104226918D01*
X165343001Y-104234599D01*
X165343000Y-106928585D01*
X165236242Y-106821827D01*
X165236242Y-105680000D01*
X165179818Y-105396339D01*
X165019137Y-105155863D01*
X164778661Y-104995182D01*
X164495000Y-104938758D01*
X161895000Y-104938758D01*
X161611339Y-104995182D01*
X161370863Y-105155863D01*
X161210182Y-105396339D01*
X161153758Y-105680000D01*
X161153758Y-107680000D01*
X161210182Y-107963661D01*
X161370863Y-108204137D01*
X161457882Y-108262282D01*
X161268202Y-108546158D01*
X161134167Y-109220000D01*
X161268202Y-109893842D01*
X161649903Y-110465097D01*
X161687173Y-110490000D01*
X161649903Y-110514903D01*
X161268202Y-111086158D01*
X161134167Y-111760000D01*
X161268202Y-112433842D01*
X161649903Y-113005097D01*
X161687173Y-113030000D01*
X161649903Y-113054903D01*
X161268202Y-113626158D01*
X161134167Y-114300000D01*
X161268202Y-114973842D01*
X161649903Y-115545097D01*
X161687173Y-115570000D01*
X161649903Y-115594903D01*
X161268202Y-116166158D01*
X161134167Y-116840000D01*
X161268202Y-117513842D01*
X161649903Y-118085097D01*
X161687173Y-118110000D01*
X161649903Y-118134903D01*
X161268202Y-118706158D01*
X161134167Y-119380000D01*
X161268202Y-120053842D01*
X161649903Y-120625097D01*
X162221158Y-121006798D01*
X162724909Y-121107000D01*
X163665091Y-121107000D01*
X164168842Y-121006798D01*
X164740097Y-120625097D01*
X165121798Y-120053842D01*
X165255833Y-119380000D01*
X165121798Y-118706158D01*
X164740097Y-118134903D01*
X164702827Y-118110000D01*
X164740097Y-118085097D01*
X164885825Y-117867000D01*
X166563853Y-117867000D01*
X166665002Y-117887120D01*
X166766151Y-117867000D01*
X166766152Y-117867000D01*
X167065717Y-117807413D01*
X167405428Y-117580426D01*
X167462728Y-117494670D01*
X169955010Y-115002389D01*
X169842105Y-115570000D01*
X169964499Y-116185315D01*
X170313047Y-116706953D01*
X170512166Y-116840000D01*
X170313047Y-116973047D01*
X169964499Y-117494685D01*
X169842105Y-118110000D01*
X169964499Y-118725315D01*
X170313047Y-119246953D01*
X170512166Y-119380000D01*
X170313047Y-119513047D01*
X169964499Y-120034685D01*
X169842105Y-120650000D01*
X169964499Y-121265315D01*
X170313047Y-121786953D01*
X170512166Y-121920000D01*
X170313047Y-122053047D01*
X169964499Y-122574685D01*
X169842105Y-123190000D01*
X169964499Y-123805315D01*
X170313047Y-124326953D01*
X170512166Y-124460000D01*
X170313047Y-124593047D01*
X169964499Y-125114685D01*
X169842105Y-125730000D01*
X169964499Y-126345315D01*
X170313047Y-126866953D01*
X170399920Y-126925000D01*
X158190000Y-126925000D01*
X158190000Y-90880000D01*
X175820000Y-90880000D01*
X175820001Y-126925000D01*
G36*
X165235327Y-111292723D02*
X166048758Y-112106155D01*
X166048758Y-113395000D01*
X166105182Y-113678661D01*
X166265863Y-113919137D01*
X166506339Y-114079818D01*
X166790000Y-114136242D01*
X167916363Y-114136242D01*
X166239606Y-115813000D01*
X164885825Y-115813000D01*
X164740097Y-115594903D01*
X164702827Y-115570000D01*
X164740097Y-115545097D01*
X165121798Y-114973842D01*
X165255833Y-114300000D01*
X165121798Y-113626158D01*
X164740097Y-113054903D01*
X164702827Y-113030000D01*
X164740097Y-113005097D01*
X165121798Y-112433842D01*
X165255833Y-111760000D01*
X165151782Y-111236901D01*
X165235327Y-111292723D01*
X165235327Y-111292723D01*
G37*
X165235327Y-111292723D02*
X166048758Y-112106155D01*
X166048758Y-113395000D01*
X166105182Y-113678661D01*
X166265863Y-113919137D01*
X166506339Y-114079818D01*
X166790000Y-114136242D01*
X167916363Y-114136242D01*
X166239606Y-115813000D01*
X164885825Y-115813000D01*
X164740097Y-115594903D01*
X164702827Y-115570000D01*
X164740097Y-115545097D01*
X165121798Y-114973842D01*
X165255833Y-114300000D01*
X165121798Y-113626158D01*
X164740097Y-113054903D01*
X164702827Y-113030000D01*
X164740097Y-113005097D01*
X165121798Y-112433842D01*
X165255833Y-111760000D01*
X165151782Y-111236901D01*
X165235327Y-111292723D01*
G36*
X164863000Y-110393846D02*
X164842879Y-110494999D01*
X164892084Y-110742368D01*
X164740097Y-110514903D01*
X164702827Y-110490000D01*
X164740097Y-110465097D01*
X164863000Y-110281160D01*
X164863000Y-110393846D01*
X164863000Y-110393846D01*
G37*
X164863000Y-110393846D02*
X164842879Y-110494999D01*
X164892084Y-110742368D01*
X164740097Y-110514903D01*
X164702827Y-110490000D01*
X164740097Y-110465097D01*
X164863000Y-110281160D01*
X164863000Y-110393846D01*
G36*
X168025605Y-110179738D02*
X168025605Y-110653758D01*
X167501155Y-110653758D01*
X166983638Y-110136242D01*
X168043622Y-110136242D01*
X168025605Y-110179738D01*
X168025605Y-110179738D01*
G37*
X168025605Y-110179738D02*
X168025605Y-110653758D01*
X167501155Y-110653758D01*
X166983638Y-110136242D01*
X168043622Y-110136242D01*
X168025605Y-110179738D01*
G36*
X168112280Y-104874687D02*
X168169575Y-104960435D01*
X168255325Y-105017731D01*
X168525606Y-105288012D01*
X168525606Y-106660840D01*
X168490000Y-106653758D01*
X167397000Y-106653758D01*
X167397000Y-104159406D01*
X168112280Y-104874687D01*
X168112280Y-104874687D01*
G37*
X168112280Y-104874687D02*
X168169575Y-104960435D01*
X168255325Y-105017731D01*
X168525606Y-105288012D01*
X168525606Y-106660840D01*
X168490000Y-106653758D01*
X167397000Y-106653758D01*
X167397000Y-104159406D01*
X168112280Y-104874687D01*
G36*
X170313047Y-104006953D02*
X170512166Y-104140000D01*
X170368896Y-104235730D01*
X170293031Y-104122189D01*
X170282411Y-104115093D01*
X170306015Y-103996428D01*
X170313047Y-104006953D01*
X170313047Y-104006953D01*
G37*
X170313047Y-104006953D02*
X170512166Y-104140000D01*
X170368896Y-104235730D01*
X170293031Y-104122189D01*
X170282411Y-104115093D01*
X170306015Y-103996428D01*
X170313047Y-104006953D01*
G36*
X170512166Y-101600000D02*
X170317010Y-101730399D01*
X170317010Y-101469601D01*
X170512166Y-101600000D01*
X170512166Y-101600000D01*
G37*
X170512166Y-101600000D02*
X170317010Y-101730399D01*
X170317010Y-101469601D01*
X170512166Y-101600000D01*
G36*
X165722265Y-100904662D02*
X165779564Y-100990416D01*
X165826575Y-101021827D01*
X165457000Y-101391402D01*
X165457000Y-101276370D01*
X165209304Y-100678378D01*
X165110823Y-100579897D01*
X165254137Y-100484137D01*
X165273204Y-100455601D01*
X165722265Y-100904662D01*
X165722265Y-100904662D01*
G37*
X165722265Y-100904662D02*
X165779564Y-100990416D01*
X165826575Y-101021827D01*
X165457000Y-101391402D01*
X165457000Y-101276370D01*
X165209304Y-100678378D01*
X165110823Y-100579897D01*
X165254137Y-100484137D01*
X165273204Y-100455601D01*
X165722265Y-100904662D01*
G36*
X162188758Y-99779154D02*
X161987000Y-99577396D01*
X161987000Y-98395396D01*
X162188758Y-98193638D01*
X162188758Y-99779154D01*
X162188758Y-99779154D01*
G37*
X162188758Y-99779154D02*
X161987000Y-99577396D01*
X161987000Y-98395396D01*
X162188758Y-98193638D01*
X162188758Y-99779154D01*
G36*
X170313047Y-98926953D02*
X170512166Y-99060000D01*
X170333242Y-99179553D01*
X170337130Y-99160007D01*
X170292853Y-98937412D01*
X170281331Y-98879487D01*
X170313047Y-98926953D01*
X170313047Y-98926953D01*
G37*
X170313047Y-98926953D02*
X170512166Y-99060000D01*
X170333242Y-99179553D01*
X170337130Y-99160007D01*
X170292853Y-98937412D01*
X170281331Y-98879487D01*
X170313047Y-98926953D01*
G36*
X167615472Y-98654976D02*
X167893269Y-98932773D01*
X167934243Y-99138758D01*
X166890000Y-99138758D01*
X166865940Y-99143544D01*
X166127726Y-98405330D01*
X166070426Y-98319574D01*
X165758634Y-98111242D01*
X167390250Y-98111242D01*
X167615472Y-98654976D01*
X167615472Y-98654976D01*
G37*
X167615472Y-98654976D02*
X167893269Y-98932773D01*
X167934243Y-99138758D01*
X166890000Y-99138758D01*
X166865940Y-99143544D01*
X166127726Y-98405330D01*
X166070426Y-98319574D01*
X165758634Y-98111242D01*
X167390250Y-98111242D01*
X167615472Y-98654976D01*
G36*
X165124345Y-95086741D02*
X165035863Y-95145863D01*
X164875182Y-95386339D01*
X164818758Y-95670000D01*
X164818758Y-97370000D01*
X164832513Y-97439149D01*
X164730000Y-97418758D01*
X164291543Y-97418758D01*
X164301242Y-97370000D01*
X164301242Y-95670000D01*
X164244818Y-95386339D01*
X164084137Y-95145863D01*
X163843661Y-94985182D01*
X163560000Y-94928758D01*
X162500746Y-94928758D01*
X162584528Y-94844976D01*
X162817000Y-94283739D01*
X162817000Y-93905397D01*
X162985397Y-93737000D01*
X163774604Y-93737000D01*
X165124345Y-95086741D01*
X165124345Y-95086741D01*
G37*
X165124345Y-95086741D02*
X165035863Y-95145863D01*
X164875182Y-95386339D01*
X164818758Y-95670000D01*
X164818758Y-97370000D01*
X164832513Y-97439149D01*
X164730000Y-97418758D01*
X164291543Y-97418758D01*
X164301242Y-97370000D01*
X164301242Y-95670000D01*
X164244818Y-95386339D01*
X164084137Y-95145863D01*
X163843661Y-94985182D01*
X163560000Y-94928758D01*
X162500746Y-94928758D01*
X162584528Y-94844976D01*
X162817000Y-94283739D01*
X162817000Y-93905397D01*
X162985397Y-93737000D01*
X163774604Y-93737000D01*
X165124345Y-95086741D01*
M02*
