G04 #@! TF.GenerationSoftware,KiCad,Pcbnew,5.0.0-rc2-dev-unknown-5e5e80d~64~ubuntu16.04.1*
G04 #@! TF.CreationDate,2018-05-03T07:12:55-03:00*
G04 #@! TF.ProjectId,audio_1,617564696F5F312E6B696361645F7063,rev?*
G04 #@! TF.SameCoordinates,Original*
G04 #@! TF.FileFunction,Copper,L1,Top,Signal*
G04 #@! TF.FilePolarity,Positive*
%FSLAX46Y46*%
G04 Gerber Fmt 4.6, Leading zero omitted, Abs format (unit mm)*
G04 Created by KiCad (PCBNEW 5.0.0-rc2-dev-unknown-5e5e80d~64~ubuntu16.04.1) date Thu May  3 07:12:55 2018*
%MOMM*%
%LPD*%
G01*
G04 APERTURE LIST*
%ADD10O,2.600000X2.000000*%
%ADD11R,2.600000X2.000000*%
%ADD12R,1.700000X1.700000*%
%ADD13O,1.700000X1.700000*%
%ADD14C,0.600000*%
G04 APERTURE END LIST*
D10*
X163195000Y-107315000D03*
X163195000Y-104775000D03*
X163195000Y-102235000D03*
X163195000Y-99695000D03*
D11*
X163195000Y-97155000D03*
D12*
X171450000Y-87630000D03*
D13*
X171450000Y-90170000D03*
X171450000Y-92710000D03*
X171450000Y-95250000D03*
X171450000Y-97790000D03*
X171450000Y-100330000D03*
X171450000Y-116840000D03*
X171450000Y-114300000D03*
X171450000Y-111760000D03*
X171450000Y-109220000D03*
X171450000Y-106680000D03*
D12*
X171450000Y-104140000D03*
D14*
X171450000Y-100960000D02*
X171450000Y-100330000D01*
X163195000Y-107315000D02*
X165095000Y-107315000D01*
X168270000Y-104140000D02*
X167640000Y-104770000D01*
X167640000Y-104770000D02*
X171450000Y-100960000D01*
X171450000Y-104140000D02*
X168270000Y-104140000D01*
X165095000Y-107315000D02*
X167640000Y-104770000D01*
X171120000Y-116840000D02*
X171450000Y-116840000D01*
X163195000Y-108915000D02*
X171120000Y-116840000D01*
X163195000Y-107315000D02*
X163195000Y-108915000D01*
X170600001Y-98639999D02*
X171450000Y-97790000D01*
X165104990Y-104135010D02*
X170600001Y-98639999D01*
X163834990Y-104135010D02*
X165104990Y-104135010D01*
X163195000Y-104775000D02*
X163834990Y-104135010D01*
X161295000Y-104775000D02*
X163195000Y-104775000D01*
X160994990Y-108974992D02*
X160994990Y-105075010D01*
X170609999Y-118590001D02*
X160994990Y-108974992D01*
X172290001Y-118590001D02*
X170609999Y-118590001D01*
X173200001Y-117680001D02*
X172290001Y-118590001D01*
X160994990Y-105075010D02*
X161295000Y-104775000D01*
X173200001Y-116050001D02*
X173200001Y-117680001D01*
X171450000Y-114300000D02*
X173200001Y-116050001D01*
X172299999Y-96940001D02*
X171450000Y-97790000D01*
X173490011Y-95749989D02*
X172299999Y-96940001D01*
X173490011Y-88220011D02*
X173490011Y-95749989D01*
X172900000Y-87630000D02*
X173490011Y-88220011D01*
X171450000Y-87630000D02*
X172900000Y-87630000D01*
X169545000Y-97155000D02*
X170600001Y-96099999D01*
X169545000Y-97785000D02*
X169545000Y-97155000D01*
X170600001Y-96099999D02*
X171450000Y-95250000D01*
X165095000Y-102235000D02*
X169545000Y-97785000D01*
X163195000Y-102235000D02*
X165095000Y-102235000D01*
X161295000Y-102235000D02*
X163195000Y-102235000D01*
X159794981Y-103735019D02*
X161295000Y-102235000D01*
X170112938Y-119790010D02*
X159794981Y-109472053D01*
X172787061Y-119790011D02*
X170112938Y-119790010D01*
X159794981Y-109472053D02*
X159794981Y-103735019D01*
X174400010Y-118177062D02*
X172787061Y-119790011D01*
X174400010Y-114710010D02*
X174400010Y-118177062D01*
X171450000Y-111760000D02*
X174400010Y-114710010D01*
X170600001Y-93559999D02*
X171450000Y-92710000D01*
X165395001Y-98764999D02*
X170600001Y-93559999D01*
X165395001Y-99394999D02*
X165395001Y-98764999D01*
X165095000Y-99695000D02*
X165395001Y-99394999D01*
X163195000Y-99695000D02*
X165095000Y-99695000D01*
X175600020Y-113370020D02*
X172299999Y-110069999D01*
X173284122Y-120990020D02*
X175600020Y-118674122D01*
X175600020Y-118674122D02*
X175600020Y-113370020D01*
X158594972Y-109969114D02*
X169615879Y-120990019D01*
X158594972Y-102395028D02*
X158594972Y-109969114D01*
X161295000Y-99695000D02*
X158594972Y-102395028D01*
X172299999Y-110069999D02*
X171450000Y-109220000D01*
X169615879Y-120990019D02*
X173284122Y-120990020D01*
X163195000Y-99695000D02*
X161295000Y-99695000D01*
X170480000Y-90170000D02*
X171450000Y-90170000D01*
X163495000Y-97155000D02*
X170480000Y-90170000D01*
X163495000Y-97155000D02*
X163195000Y-97155000D01*
X169699999Y-86059999D02*
X169699999Y-89622080D01*
X169879999Y-85879999D02*
X169699999Y-86059999D01*
X169699999Y-89622080D02*
X170247919Y-90170000D01*
X174690020Y-104642061D02*
X174690020Y-87550018D01*
X170247919Y-90170000D02*
X171450000Y-90170000D01*
X174690020Y-87550018D02*
X173020001Y-85879999D01*
X172652081Y-106680000D02*
X174690020Y-104642061D01*
X173020001Y-85879999D02*
X169879999Y-85879999D01*
X171450000Y-106680000D02*
X172652081Y-106680000D01*
M02*
