G04 #@! TF.GenerationSoftware,KiCad,Pcbnew,5.0.0-rc2-dev-unknown-5e5e80d~64~ubuntu16.04.1*
G04 #@! TF.CreationDate,2018-05-07T09:49:11-03:00*
G04 #@! TF.ProjectId,audio_1,617564696F5F312E6B696361645F7063,rev?*
G04 #@! TF.SameCoordinates,Original*
G04 #@! TF.FileFunction,Copper,L1,Top,Signal*
G04 #@! TF.FilePolarity,Positive*
%FSLAX46Y46*%
G04 Gerber Fmt 4.6, Leading zero omitted, Abs format (unit mm)*
G04 Created by KiCad (PCBNEW 5.0.0-rc2-dev-unknown-5e5e80d~64~ubuntu16.04.1) date Mon May  7 09:49:11 2018*
%MOMM*%
%LPD*%
G01*
G04 APERTURE LIST*
%ADD10R,1.700000X1.700000*%
%ADD11O,1.700000X1.700000*%
%ADD12R,1.500000X0.900000*%
%ADD13O,1.500000X0.900000*%
%ADD14C,1.800000*%
%ADD15R,1.800000X1.800000*%
%ADD16O,2.600000X2.000000*%
%ADD17R,2.600000X2.000000*%
%ADD18C,1.600000*%
%ADD19C,0.600000*%
%ADD20C,0.254000*%
G04 APERTURE END LIST*
D10*
X171450000Y-95250000D03*
D11*
X171450000Y-97790000D03*
X171450000Y-100330000D03*
X171450000Y-102870000D03*
X171450000Y-105410000D03*
X171450000Y-107950000D03*
D12*
X167640000Y-100330000D03*
D13*
X167640000Y-102870000D03*
X167640000Y-101600000D03*
D11*
X171450000Y-125730000D03*
X171450000Y-123190000D03*
X171450000Y-120650000D03*
X171450000Y-118110000D03*
X171450000Y-115570000D03*
D10*
X171450000Y-113030000D03*
D14*
X163830000Y-101600000D03*
D15*
X163830000Y-99060000D03*
D16*
X163195000Y-119380000D03*
X163195000Y-116840000D03*
X163195000Y-114300000D03*
X163195000Y-111760000D03*
X163195000Y-109220000D03*
D17*
X163195000Y-106680000D03*
D18*
X161290000Y-93980000D03*
X168910000Y-97790000D03*
X169552605Y-110483477D03*
D19*
X165100000Y-119380000D02*
X171450000Y-125730000D01*
X162560000Y-119380000D02*
X165100000Y-119380000D01*
X171450000Y-113030000D02*
X171450000Y-107950000D01*
X173200001Y-102817069D02*
X175600020Y-100417050D01*
X175600019Y-92685877D02*
X174014121Y-91099979D01*
X174014121Y-91099979D02*
X164975878Y-91099980D01*
X175600020Y-100417050D02*
X175600019Y-92685877D01*
X161710001Y-118530001D02*
X162560000Y-119380000D01*
X158359979Y-115179979D02*
X161710001Y-118530001D01*
X158359979Y-97715879D02*
X158359979Y-115179979D01*
X162095858Y-93515858D02*
X162560000Y-93515858D01*
X162560000Y-93515858D02*
X158359979Y-97715879D01*
X164975878Y-91099980D02*
X162560000Y-93515858D01*
X173200001Y-106199999D02*
X171450000Y-107950000D01*
X173200001Y-102817069D02*
X173200001Y-106199999D01*
X162224143Y-93180001D02*
X162560000Y-93515858D01*
X162089999Y-93180001D02*
X162224143Y-93180001D01*
X161290000Y-93980000D02*
X162089999Y-93180001D01*
X165100000Y-116840000D02*
X162560000Y-116840000D01*
X171450000Y-123190000D02*
X165100000Y-116840000D01*
X168910000Y-96340000D02*
X168910000Y-97790000D01*
X170000000Y-95250000D02*
X168910000Y-96340000D01*
X171450000Y-95250000D02*
X170000000Y-95250000D01*
X169552605Y-107307395D02*
X171450000Y-105410000D01*
X169552605Y-110483477D02*
X169552605Y-107307395D01*
X165472939Y-92299989D02*
X159559989Y-98212939D01*
X171450000Y-102870000D02*
X174400010Y-99919990D01*
X174400010Y-99919990D02*
X174400010Y-93182938D01*
X174400010Y-93182938D02*
X173517061Y-92299989D01*
X173517061Y-92299989D02*
X165472939Y-92299989D01*
X159559989Y-111299989D02*
X162560000Y-114300000D01*
X159559989Y-98212939D02*
X159559989Y-111299989D01*
X165100000Y-114300000D02*
X171450000Y-120650000D01*
X162560000Y-114300000D02*
X165100000Y-114300000D01*
X160809999Y-108250001D02*
X160809999Y-110009999D01*
X160759999Y-108200001D02*
X160809999Y-108250001D01*
X160939999Y-98529999D02*
X160759999Y-98709999D01*
X160759999Y-98709999D02*
X160759999Y-108200001D01*
X173200001Y-93679999D02*
X173020001Y-93499999D01*
X173020001Y-93499999D02*
X165969999Y-93499999D01*
X173200001Y-98579999D02*
X173200001Y-93679999D01*
X165969999Y-93499999D02*
X160759999Y-98709999D01*
X171450000Y-100330000D02*
X173200001Y-98579999D01*
X161472991Y-111120010D02*
X161066491Y-110713510D01*
X161920010Y-111120010D02*
X161472991Y-111120010D01*
X162560000Y-111760000D02*
X161920010Y-111120010D01*
X160809999Y-110009999D02*
X161066491Y-110713510D01*
X165100000Y-111760000D02*
X171450000Y-118110000D01*
X162560000Y-111760000D02*
X165100000Y-111760000D01*
X169290010Y-99949990D02*
X169290010Y-103759990D01*
X171450000Y-97790000D02*
X169290010Y-99949990D01*
X164319998Y-109220000D02*
X163762081Y-109220000D01*
X163762081Y-109220000D02*
X162560000Y-109220000D01*
X170669998Y-115570000D02*
X164319998Y-109220000D01*
X171450000Y-115570000D02*
X170669998Y-115570000D01*
X169290010Y-105024990D02*
X169290010Y-103759990D01*
X165095000Y-109220000D02*
X169290010Y-105024990D01*
X163195000Y-109220000D02*
X165095000Y-109220000D01*
D20*
G36*
X161055326Y-119327723D02*
X161055329Y-119327725D01*
X161140763Y-119413159D01*
X161268202Y-120053842D01*
X161649903Y-120625097D01*
X162221158Y-121006798D01*
X162724909Y-121107000D01*
X163665091Y-121107000D01*
X164168842Y-121006798D01*
X164740097Y-120625097D01*
X164801222Y-120533618D01*
X169867904Y-125600301D01*
X169842105Y-125730000D01*
X169964499Y-126345315D01*
X170313047Y-126866953D01*
X170399920Y-126925000D01*
X158190000Y-126925000D01*
X158190000Y-116462396D01*
X161055326Y-119327723D01*
X161055326Y-119327723D01*
G37*
X161055326Y-119327723D02*
X161055329Y-119327725D01*
X161140763Y-119413159D01*
X161268202Y-120053842D01*
X161649903Y-120625097D01*
X162221158Y-121006798D01*
X162724909Y-121107000D01*
X163665091Y-121107000D01*
X164168842Y-121006798D01*
X164740097Y-120625097D01*
X164801222Y-120533618D01*
X169867904Y-125600301D01*
X169842105Y-125730000D01*
X169964499Y-126345315D01*
X170313047Y-126866953D01*
X170399920Y-126925000D01*
X158190000Y-126925000D01*
X158190000Y-116462396D01*
X161055326Y-119327723D01*
G36*
X175820001Y-126925000D02*
X172500080Y-126925000D01*
X172586953Y-126866953D01*
X172935501Y-126345315D01*
X173057895Y-125730000D01*
X172935501Y-125114685D01*
X172586953Y-124593047D01*
X172387834Y-124460000D01*
X172586953Y-124326953D01*
X172935501Y-123805315D01*
X173057895Y-123190000D01*
X172935501Y-122574685D01*
X172586953Y-122053047D01*
X172387834Y-121920000D01*
X172586953Y-121786953D01*
X172935501Y-121265315D01*
X173057895Y-120650000D01*
X172935501Y-120034685D01*
X172586953Y-119513047D01*
X172387834Y-119380000D01*
X172586953Y-119246953D01*
X172935501Y-118725315D01*
X173057895Y-118110000D01*
X172935501Y-117494685D01*
X172586953Y-116973047D01*
X172387834Y-116840000D01*
X172586953Y-116706953D01*
X172935501Y-116185315D01*
X173057895Y-115570000D01*
X172935501Y-114954685D01*
X172646807Y-114522625D01*
X172824137Y-114404137D01*
X172984818Y-114163661D01*
X173041242Y-113880000D01*
X173041242Y-112180000D01*
X172984818Y-111896339D01*
X172824137Y-111655863D01*
X172583661Y-111495182D01*
X172477000Y-111473966D01*
X172477000Y-109160421D01*
X172586953Y-109086953D01*
X172935501Y-108565315D01*
X173057895Y-107950000D01*
X173032096Y-107820300D01*
X173854673Y-106997724D01*
X173940427Y-106940425D01*
X174167414Y-106600714D01*
X174227001Y-106301149D01*
X174247121Y-106200000D01*
X174227001Y-106098851D01*
X174227001Y-103242465D01*
X175820000Y-101649467D01*
X175820001Y-126925000D01*
X175820001Y-126925000D01*
G37*
X175820001Y-126925000D02*
X172500080Y-126925000D01*
X172586953Y-126866953D01*
X172935501Y-126345315D01*
X173057895Y-125730000D01*
X172935501Y-125114685D01*
X172586953Y-124593047D01*
X172387834Y-124460000D01*
X172586953Y-124326953D01*
X172935501Y-123805315D01*
X173057895Y-123190000D01*
X172935501Y-122574685D01*
X172586953Y-122053047D01*
X172387834Y-121920000D01*
X172586953Y-121786953D01*
X172935501Y-121265315D01*
X173057895Y-120650000D01*
X172935501Y-120034685D01*
X172586953Y-119513047D01*
X172387834Y-119380000D01*
X172586953Y-119246953D01*
X172935501Y-118725315D01*
X173057895Y-118110000D01*
X172935501Y-117494685D01*
X172586953Y-116973047D01*
X172387834Y-116840000D01*
X172586953Y-116706953D01*
X172935501Y-116185315D01*
X173057895Y-115570000D01*
X172935501Y-114954685D01*
X172646807Y-114522625D01*
X172824137Y-114404137D01*
X172984818Y-114163661D01*
X173041242Y-113880000D01*
X173041242Y-112180000D01*
X172984818Y-111896339D01*
X172824137Y-111655863D01*
X172583661Y-111495182D01*
X172477000Y-111473966D01*
X172477000Y-109160421D01*
X172586953Y-109086953D01*
X172935501Y-108565315D01*
X173057895Y-107950000D01*
X173032096Y-107820300D01*
X173854673Y-106997724D01*
X173940427Y-106940425D01*
X174167414Y-106600714D01*
X174227001Y-106301149D01*
X174247121Y-106200000D01*
X174227001Y-106098851D01*
X174227001Y-103242465D01*
X175820000Y-101649467D01*
X175820001Y-126925000D01*
G36*
X165150536Y-118342932D02*
X165100000Y-118332880D01*
X164998851Y-118353000D01*
X164885825Y-118353000D01*
X164740097Y-118134903D01*
X164702827Y-118110000D01*
X164740097Y-118085097D01*
X164801222Y-117993618D01*
X165150536Y-118342932D01*
X165150536Y-118342932D01*
G37*
X165150536Y-118342932D02*
X165100000Y-118332880D01*
X164998851Y-118353000D01*
X164885825Y-118353000D01*
X164740097Y-118134903D01*
X164702827Y-118110000D01*
X164740097Y-118085097D01*
X164801222Y-117993618D01*
X165150536Y-118342932D01*
G36*
X161140763Y-114333160D02*
X161268202Y-114973842D01*
X161649903Y-115545097D01*
X161687173Y-115570000D01*
X161649903Y-115594903D01*
X161268202Y-116166158D01*
X161190283Y-116557886D01*
X159386979Y-114754583D01*
X159386979Y-112579375D01*
X161140763Y-114333160D01*
X161140763Y-114333160D01*
G37*
X161140763Y-114333160D02*
X161268202Y-114973842D01*
X161649903Y-115545097D01*
X161687173Y-115570000D01*
X161649903Y-115594903D01*
X161268202Y-116166158D01*
X161190283Y-116557886D01*
X159386979Y-114754583D01*
X159386979Y-112579375D01*
X161140763Y-114333160D01*
G36*
X165150536Y-115802932D02*
X165100000Y-115792880D01*
X164998851Y-115813000D01*
X164885825Y-115813000D01*
X164740097Y-115594903D01*
X164702827Y-115570000D01*
X164740097Y-115545097D01*
X164801222Y-115453618D01*
X165150536Y-115802932D01*
X165150536Y-115802932D01*
G37*
X165150536Y-115802932D02*
X165100000Y-115792880D01*
X164998851Y-115813000D01*
X164885825Y-115813000D01*
X164740097Y-115594903D01*
X164702827Y-115570000D01*
X164740097Y-115545097D01*
X164801222Y-115453618D01*
X165150536Y-115802932D01*
G36*
X168505485Y-107307395D02*
X168525606Y-107408549D01*
X168525605Y-109350973D01*
X168258077Y-109618501D01*
X168025605Y-110179738D01*
X168025605Y-110787216D01*
X168258077Y-111348453D01*
X168687629Y-111778005D01*
X169248866Y-112010477D01*
X169856344Y-112010477D01*
X169895723Y-111994166D01*
X169858758Y-112180000D01*
X169858758Y-113306363D01*
X166159895Y-109607501D01*
X168516779Y-107250618D01*
X168505485Y-107307395D01*
X168505485Y-107307395D01*
G37*
X168505485Y-107307395D02*
X168525606Y-107408549D01*
X168525605Y-109350973D01*
X168258077Y-109618501D01*
X168025605Y-110179738D01*
X168025605Y-110787216D01*
X168258077Y-111348453D01*
X168687629Y-111778005D01*
X169248866Y-112010477D01*
X169856344Y-112010477D01*
X169895723Y-111994166D01*
X169858758Y-112180000D01*
X169858758Y-113306363D01*
X166159895Y-109607501D01*
X168516779Y-107250618D01*
X168505485Y-107307395D01*
G36*
X165150536Y-113262932D02*
X165100000Y-113252880D01*
X164998851Y-113273000D01*
X164885825Y-113273000D01*
X164740097Y-113054903D01*
X164702827Y-113030000D01*
X164740097Y-113005097D01*
X164801222Y-112913618D01*
X165150536Y-113262932D01*
X165150536Y-113262932D01*
G37*
X165150536Y-113262932D02*
X165100000Y-113252880D01*
X164998851Y-113273000D01*
X164885825Y-113273000D01*
X164740097Y-113054903D01*
X164702827Y-113030000D01*
X164740097Y-113005097D01*
X164801222Y-112913618D01*
X165150536Y-113262932D01*
G36*
X169202275Y-94595328D02*
X168255330Y-95542274D01*
X168169574Y-95599574D01*
X167942587Y-95939286D01*
X167932415Y-95990426D01*
X167862880Y-96340000D01*
X167883000Y-96441150D01*
X167883000Y-96657496D01*
X167615472Y-96925024D01*
X167383000Y-97486261D01*
X167383000Y-98093739D01*
X167615472Y-98654976D01*
X168045024Y-99084528D01*
X168175947Y-99138758D01*
X166890000Y-99138758D01*
X166606339Y-99195182D01*
X166365863Y-99355863D01*
X166205182Y-99596339D01*
X166148758Y-99880000D01*
X166148758Y-100780000D01*
X166205182Y-101063661D01*
X166243994Y-101121747D01*
X166231291Y-101140758D01*
X166139942Y-101600000D01*
X166231291Y-102059242D01*
X166348729Y-102235000D01*
X166231291Y-102410758D01*
X166139942Y-102870000D01*
X166231291Y-103329242D01*
X166491431Y-103718569D01*
X166880758Y-103978709D01*
X167224080Y-104047000D01*
X168055920Y-104047000D01*
X168263011Y-104005807D01*
X168263010Y-104599593D01*
X165236242Y-107626362D01*
X165236242Y-105680000D01*
X165179818Y-105396339D01*
X165019137Y-105155863D01*
X164778661Y-104995182D01*
X164495000Y-104938758D01*
X161895000Y-104938758D01*
X161786999Y-104960241D01*
X161786999Y-99135395D01*
X162188758Y-98733636D01*
X162188758Y-99960000D01*
X162245182Y-100243661D01*
X162405863Y-100484137D01*
X162549177Y-100579897D01*
X162450696Y-100678378D01*
X162203000Y-101276370D01*
X162203000Y-101923630D01*
X162450696Y-102521622D01*
X162908378Y-102979304D01*
X163506370Y-103227000D01*
X164153630Y-103227000D01*
X164751622Y-102979304D01*
X165209304Y-102521622D01*
X165457000Y-101923630D01*
X165457000Y-101276370D01*
X165209304Y-100678378D01*
X165110823Y-100579897D01*
X165254137Y-100484137D01*
X165414818Y-100243661D01*
X165471242Y-99960000D01*
X165471242Y-98160000D01*
X165414818Y-97876339D01*
X165254137Y-97635863D01*
X165013661Y-97475182D01*
X164730000Y-97418758D01*
X163503636Y-97418758D01*
X166395396Y-94526999D01*
X169247931Y-94526999D01*
X169202275Y-94595328D01*
X169202275Y-94595328D01*
G37*
X169202275Y-94595328D02*
X168255330Y-95542274D01*
X168169574Y-95599574D01*
X167942587Y-95939286D01*
X167932415Y-95990426D01*
X167862880Y-96340000D01*
X167883000Y-96441150D01*
X167883000Y-96657496D01*
X167615472Y-96925024D01*
X167383000Y-97486261D01*
X167383000Y-98093739D01*
X167615472Y-98654976D01*
X168045024Y-99084528D01*
X168175947Y-99138758D01*
X166890000Y-99138758D01*
X166606339Y-99195182D01*
X166365863Y-99355863D01*
X166205182Y-99596339D01*
X166148758Y-99880000D01*
X166148758Y-100780000D01*
X166205182Y-101063661D01*
X166243994Y-101121747D01*
X166231291Y-101140758D01*
X166139942Y-101600000D01*
X166231291Y-102059242D01*
X166348729Y-102235000D01*
X166231291Y-102410758D01*
X166139942Y-102870000D01*
X166231291Y-103329242D01*
X166491431Y-103718569D01*
X166880758Y-103978709D01*
X167224080Y-104047000D01*
X168055920Y-104047000D01*
X168263011Y-104005807D01*
X168263010Y-104599593D01*
X165236242Y-107626362D01*
X165236242Y-105680000D01*
X165179818Y-105396339D01*
X165019137Y-105155863D01*
X164778661Y-104995182D01*
X164495000Y-104938758D01*
X161895000Y-104938758D01*
X161786999Y-104960241D01*
X161786999Y-99135395D01*
X162188758Y-98733636D01*
X162188758Y-99960000D01*
X162245182Y-100243661D01*
X162405863Y-100484137D01*
X162549177Y-100579897D01*
X162450696Y-100678378D01*
X162203000Y-101276370D01*
X162203000Y-101923630D01*
X162450696Y-102521622D01*
X162908378Y-102979304D01*
X163506370Y-103227000D01*
X164153630Y-103227000D01*
X164751622Y-102979304D01*
X165209304Y-102521622D01*
X165457000Y-101923630D01*
X165457000Y-101276370D01*
X165209304Y-100678378D01*
X165110823Y-100579897D01*
X165254137Y-100484137D01*
X165414818Y-100243661D01*
X165471242Y-99960000D01*
X165471242Y-98160000D01*
X165414818Y-97876339D01*
X165254137Y-97635863D01*
X165013661Y-97475182D01*
X164730000Y-97418758D01*
X163503636Y-97418758D01*
X166395396Y-94526999D01*
X169247931Y-94526999D01*
X169202275Y-94595328D01*
G36*
X170512166Y-104140000D02*
X170317010Y-104270399D01*
X170317010Y-104009601D01*
X170512166Y-104140000D01*
X170512166Y-104140000D01*
G37*
X170512166Y-104140000D02*
X170317010Y-104270399D01*
X170317010Y-104009601D01*
X170512166Y-104140000D01*
G36*
X170512166Y-101600000D02*
X170317010Y-101730399D01*
X170317010Y-101469601D01*
X170512166Y-101600000D01*
X170512166Y-101600000D01*
G37*
X170512166Y-101600000D02*
X170317010Y-101730399D01*
X170317010Y-101469601D01*
X170512166Y-101600000D01*
G36*
X170253193Y-96742625D02*
X170160642Y-96881138D01*
X169990950Y-96711446D01*
X170077300Y-96625097D01*
X170253193Y-96742625D01*
X170253193Y-96742625D01*
G37*
X170253193Y-96742625D02*
X170160642Y-96881138D01*
X169990950Y-96711446D01*
X170077300Y-96625097D01*
X170253193Y-96742625D01*
G36*
X162446376Y-92177086D02*
X162325293Y-92153001D01*
X162325292Y-92153001D01*
X162224143Y-92132881D01*
X162157071Y-92146223D01*
X162089998Y-92132881D01*
X161988849Y-92153001D01*
X161689284Y-92212588D01*
X161689283Y-92212589D01*
X161689282Y-92212589D01*
X161558479Y-92299989D01*
X161349573Y-92439575D01*
X161340603Y-92453000D01*
X160986261Y-92453000D01*
X160425024Y-92685472D01*
X159995472Y-93115024D01*
X159763000Y-93676261D01*
X159763000Y-94283739D01*
X159931918Y-94691543D01*
X158190000Y-96433462D01*
X158190000Y-90880000D01*
X163743460Y-90880000D01*
X162446376Y-92177086D01*
X162446376Y-92177086D01*
G37*
X162446376Y-92177086D02*
X162325293Y-92153001D01*
X162325292Y-92153001D01*
X162224143Y-92132881D01*
X162157071Y-92146223D01*
X162089998Y-92132881D01*
X161988849Y-92153001D01*
X161689284Y-92212588D01*
X161689283Y-92212589D01*
X161689282Y-92212589D01*
X161558479Y-92299989D01*
X161349573Y-92439575D01*
X161340603Y-92453000D01*
X160986261Y-92453000D01*
X160425024Y-92685472D01*
X159995472Y-93115024D01*
X159763000Y-93676261D01*
X159763000Y-94283739D01*
X159931918Y-94691543D01*
X158190000Y-96433462D01*
X158190000Y-90880000D01*
X163743460Y-90880000D01*
X162446376Y-92177086D01*
G36*
X175820000Y-91453461D02*
X175246539Y-90880000D01*
X175820000Y-90880000D01*
X175820000Y-91453461D01*
X175820000Y-91453461D01*
G37*
X175820000Y-91453461D02*
X175246539Y-90880000D01*
X175820000Y-90880000D01*
X175820000Y-91453461D01*
M02*
