M48
;DRILL file {KiCad 5.0.0-rc2-dev-unknown-5e5e80d~64~ubuntu16.04.1} date Mon May  7 09:49:15 2018
;FORMAT={-:-/ absolute / inch / decimal}
FMAT,2
INCH,TZ
T1C0.0236
T2C0.0354
T3C0.0394
T4C0.0472
%
G90
G05
M72
T1
X6.6Y-3.95
X6.6Y-4.
X6.6Y-4.05
T2
X6.45Y-3.9
X6.45Y-4.
T3
X6.35Y-3.7
X6.65Y-3.85
X6.6753Y-4.3497
X6.75Y-4.45
X6.75Y-4.55
X6.75Y-4.65
X6.75Y-4.75
X6.75Y-4.85
X6.75Y-4.95
X6.75Y-3.75
X6.75Y-3.85
X6.75Y-3.95
X6.75Y-4.05
X6.75Y-4.15
X6.75Y-4.25
T4
X6.425Y-4.2
X6.425Y-4.3
X6.425Y-4.4
X6.425Y-4.5
X6.425Y-4.6
X6.425Y-4.7
T0
M30
