G04 #@! TF.GenerationSoftware,KiCad,Pcbnew,5.0.0-rc2-dev-unknown-5e5e80d~64~ubuntu16.04.1*
G04 #@! TF.CreationDate,2018-05-02T16:07:18-03:00*
G04 #@! TF.ProjectId,audio,617564696F2E6B696361645F70636200,rev?*
G04 #@! TF.SameCoordinates,Original*
G04 #@! TF.FileFunction,Copper,L1,Top,Signal*
G04 #@! TF.FilePolarity,Positive*
%FSLAX46Y46*%
G04 Gerber Fmt 4.6, Leading zero omitted, Abs format (unit mm)*
G04 Created by KiCad (PCBNEW 5.0.0-rc2-dev-unknown-5e5e80d~64~ubuntu16.04.1) date Wed May  2 16:07:18 2018*
%MOMM*%
%LPD*%
G01*
G04 APERTURE LIST*
%ADD10O,2.600000X2.000000*%
%ADD11R,2.600000X2.000000*%
%ADD12R,1.700000X1.700000*%
%ADD13O,1.700000X1.700000*%
%ADD14C,0.600000*%
%ADD15C,0.254000*%
G04 APERTURE END LIST*
D10*
X163195000Y-107315000D03*
X163195000Y-104775000D03*
X163195000Y-102235000D03*
X163195000Y-99695000D03*
D11*
X163195000Y-97155000D03*
D12*
X171450000Y-87630000D03*
D13*
X171450000Y-90170000D03*
X171450000Y-92710000D03*
X171450000Y-95250000D03*
X171450000Y-97790000D03*
X171450000Y-100330000D03*
X171450000Y-116840000D03*
X171450000Y-114300000D03*
X171450000Y-111760000D03*
X171450000Y-109220000D03*
X171450000Y-106680000D03*
D12*
X171450000Y-104140000D03*
D14*
X171450000Y-100960000D02*
X171450000Y-100330000D01*
X163195000Y-107315000D02*
X165095000Y-107315000D01*
X168270000Y-104140000D02*
X167640000Y-104770000D01*
X167640000Y-104770000D02*
X171450000Y-100960000D01*
X171450000Y-104140000D02*
X168270000Y-104140000D01*
X165095000Y-107315000D02*
X167640000Y-104770000D01*
X171120000Y-116840000D02*
X171450000Y-116840000D01*
X163195000Y-108915000D02*
X171120000Y-116840000D01*
X163195000Y-107315000D02*
X163195000Y-108915000D01*
X170600001Y-98639999D02*
X171450000Y-97790000D01*
X165104990Y-104135010D02*
X170600001Y-98639999D01*
X163834990Y-104135010D02*
X165104990Y-104135010D01*
X163195000Y-104775000D02*
X163834990Y-104135010D01*
X161295000Y-104775000D02*
X163195000Y-104775000D01*
X160994990Y-108974992D02*
X160994990Y-105075010D01*
X170609999Y-118590001D02*
X160994990Y-108974992D01*
X172290001Y-118590001D02*
X170609999Y-118590001D01*
X173200001Y-117680001D02*
X172290001Y-118590001D01*
X160994990Y-105075010D02*
X161295000Y-104775000D01*
X173200001Y-116050001D02*
X173200001Y-117680001D01*
X171450000Y-114300000D02*
X173200001Y-116050001D01*
X172299999Y-96940001D02*
X171450000Y-97790000D01*
X173490011Y-95749989D02*
X172299999Y-96940001D01*
X173490011Y-88220011D02*
X173490011Y-95749989D01*
X172900000Y-87630000D02*
X173490011Y-88220011D01*
X171450000Y-87630000D02*
X172900000Y-87630000D01*
X169545000Y-97155000D02*
X170600001Y-96099999D01*
X169545000Y-97785000D02*
X169545000Y-97155000D01*
X170600001Y-96099999D02*
X171450000Y-95250000D01*
X165095000Y-102235000D02*
X169545000Y-97785000D01*
X163195000Y-102235000D02*
X165095000Y-102235000D01*
X161295000Y-102235000D02*
X163195000Y-102235000D01*
X159794981Y-103735019D02*
X161295000Y-102235000D01*
X170112938Y-119790010D02*
X159794981Y-109472053D01*
X172787061Y-119790011D02*
X170112938Y-119790010D01*
X159794981Y-109472053D02*
X159794981Y-103735019D01*
X174400010Y-118177062D02*
X172787061Y-119790011D01*
X174400010Y-114710010D02*
X174400010Y-118177062D01*
X171450000Y-111760000D02*
X174400010Y-114710010D01*
X170600001Y-93559999D02*
X171450000Y-92710000D01*
X165395001Y-98764999D02*
X170600001Y-93559999D01*
X165395001Y-99394999D02*
X165395001Y-98764999D01*
X165095000Y-99695000D02*
X165395001Y-99394999D01*
X163195000Y-99695000D02*
X165095000Y-99695000D01*
X175600020Y-113370020D02*
X172299999Y-110069999D01*
X173284122Y-120990020D02*
X175600020Y-118674122D01*
X175600020Y-118674122D02*
X175600020Y-113370020D01*
X158594972Y-109969114D02*
X169615879Y-120990019D01*
X158594972Y-102395028D02*
X158594972Y-109969114D01*
X161295000Y-99695000D02*
X158594972Y-102395028D01*
X172299999Y-110069999D02*
X171450000Y-109220000D01*
X169615879Y-120990019D02*
X173284122Y-120990020D01*
X163195000Y-99695000D02*
X161295000Y-99695000D01*
X170480000Y-90170000D02*
X171450000Y-90170000D01*
X163495000Y-97155000D02*
X170480000Y-90170000D01*
X163495000Y-97155000D02*
X163195000Y-97155000D01*
X169699999Y-86059999D02*
X169699999Y-89622080D01*
X169879999Y-85879999D02*
X169699999Y-86059999D01*
X169699999Y-89622080D02*
X170247919Y-90170000D01*
X174690020Y-104642061D02*
X174690020Y-87550018D01*
X170247919Y-90170000D02*
X171450000Y-90170000D01*
X174690020Y-87550018D02*
X173020001Y-85879999D01*
X172652081Y-106680000D02*
X174690020Y-104642061D01*
X173020001Y-85879999D02*
X169879999Y-85879999D01*
X171450000Y-106680000D02*
X172652081Y-106680000D01*
D15*
G36*
X182170001Y-121210000D02*
X174516538Y-121210000D01*
X176254696Y-119471844D01*
X176340446Y-119414548D01*
X176520903Y-119144475D01*
X176567432Y-119074839D01*
X176567432Y-119074838D01*
X176567433Y-119074837D01*
X176627020Y-118775272D01*
X176627020Y-118775271D01*
X176647140Y-118674123D01*
X176627020Y-118572974D01*
X176627020Y-113471168D01*
X176647140Y-113370019D01*
X176622160Y-113244438D01*
X176567433Y-112969305D01*
X176340446Y-112629594D01*
X176254695Y-112572297D01*
X173097723Y-109415327D01*
X173097721Y-109415324D01*
X173032096Y-109349699D01*
X173057895Y-109220000D01*
X172935501Y-108604685D01*
X172586953Y-108083047D01*
X172387834Y-107950000D01*
X172586953Y-107816953D01*
X172647576Y-107726224D01*
X172652081Y-107727120D01*
X172753230Y-107707000D01*
X172753231Y-107707000D01*
X173052796Y-107647413D01*
X173392507Y-107420426D01*
X173449807Y-107334670D01*
X175344693Y-105439785D01*
X175430446Y-105382487D01*
X175657433Y-105042776D01*
X175717020Y-104743211D01*
X175717020Y-104743210D01*
X175737140Y-104642061D01*
X175717020Y-104540912D01*
X175717020Y-87651167D01*
X175737140Y-87550018D01*
X175717020Y-87448868D01*
X175657433Y-87149303D01*
X175430446Y-86809592D01*
X175344692Y-86752293D01*
X174392398Y-85800000D01*
X182170000Y-85800000D01*
X182170001Y-121210000D01*
X182170001Y-121210000D01*
G37*
X182170001Y-121210000D02*
X174516538Y-121210000D01*
X176254696Y-119471844D01*
X176340446Y-119414548D01*
X176520903Y-119144475D01*
X176567432Y-119074839D01*
X176567432Y-119074838D01*
X176567433Y-119074837D01*
X176627020Y-118775272D01*
X176627020Y-118775271D01*
X176647140Y-118674123D01*
X176627020Y-118572974D01*
X176627020Y-113471168D01*
X176647140Y-113370019D01*
X176622160Y-113244438D01*
X176567433Y-112969305D01*
X176340446Y-112629594D01*
X176254695Y-112572297D01*
X173097723Y-109415327D01*
X173097721Y-109415324D01*
X173032096Y-109349699D01*
X173057895Y-109220000D01*
X172935501Y-108604685D01*
X172586953Y-108083047D01*
X172387834Y-107950000D01*
X172586953Y-107816953D01*
X172647576Y-107726224D01*
X172652081Y-107727120D01*
X172753230Y-107707000D01*
X172753231Y-107707000D01*
X173052796Y-107647413D01*
X173392507Y-107420426D01*
X173449807Y-107334670D01*
X175344693Y-105439785D01*
X175430446Y-105382487D01*
X175657433Y-105042776D01*
X175717020Y-104743211D01*
X175717020Y-104743210D01*
X175737140Y-104642061D01*
X175717020Y-104540912D01*
X175717020Y-87651167D01*
X175737140Y-87550018D01*
X175717020Y-87448868D01*
X175657433Y-87149303D01*
X175430446Y-86809592D01*
X175344692Y-86752293D01*
X174392398Y-85800000D01*
X182170000Y-85800000D01*
X182170001Y-121210000D01*
G36*
X168383463Y-121210000D02*
X158190000Y-121210000D01*
X158190000Y-111016538D01*
X168383463Y-121210000D01*
X168383463Y-121210000D01*
G37*
X168383463Y-121210000D02*
X158190000Y-121210000D01*
X158190000Y-111016538D01*
X168383463Y-121210000D01*
G36*
X169915182Y-105273661D02*
X170075863Y-105514137D01*
X170253193Y-105632625D01*
X169964499Y-106064685D01*
X169842105Y-106680000D01*
X169964499Y-107295315D01*
X170313047Y-107816953D01*
X170512166Y-107950000D01*
X170313047Y-108083047D01*
X169964499Y-108604685D01*
X169842105Y-109220000D01*
X169964499Y-109835315D01*
X170313047Y-110356953D01*
X170512166Y-110490000D01*
X170313047Y-110623047D01*
X169964499Y-111144685D01*
X169842105Y-111760000D01*
X169964499Y-112375315D01*
X170313047Y-112896953D01*
X170512166Y-113030000D01*
X170313047Y-113163047D01*
X169964499Y-113684685D01*
X169873677Y-114141279D01*
X164471778Y-108739382D01*
X164740097Y-108560097D01*
X164885825Y-108342000D01*
X164993851Y-108342000D01*
X165095000Y-108362120D01*
X165196149Y-108342000D01*
X165196150Y-108342000D01*
X165495715Y-108282413D01*
X165835426Y-108055426D01*
X165892726Y-107969670D01*
X168437722Y-105424675D01*
X168437724Y-105424672D01*
X168695396Y-105167000D01*
X169893966Y-105167000D01*
X169915182Y-105273661D01*
X169915182Y-105273661D01*
G37*
X169915182Y-105273661D02*
X170075863Y-105514137D01*
X170253193Y-105632625D01*
X169964499Y-106064685D01*
X169842105Y-106680000D01*
X169964499Y-107295315D01*
X170313047Y-107816953D01*
X170512166Y-107950000D01*
X170313047Y-108083047D01*
X169964499Y-108604685D01*
X169842105Y-109220000D01*
X169964499Y-109835315D01*
X170313047Y-110356953D01*
X170512166Y-110490000D01*
X170313047Y-110623047D01*
X169964499Y-111144685D01*
X169842105Y-111760000D01*
X169964499Y-112375315D01*
X170313047Y-112896953D01*
X170512166Y-113030000D01*
X170313047Y-113163047D01*
X169964499Y-113684685D01*
X169873677Y-114141279D01*
X164471778Y-108739382D01*
X164740097Y-108560097D01*
X164885825Y-108342000D01*
X164993851Y-108342000D01*
X165095000Y-108362120D01*
X165196149Y-108342000D01*
X165196150Y-108342000D01*
X165495715Y-108282413D01*
X165835426Y-108055426D01*
X165892726Y-107969670D01*
X168437722Y-105424675D01*
X168437724Y-105424672D01*
X168695396Y-105167000D01*
X169893966Y-105167000D01*
X169915182Y-105273661D01*
G36*
X169964499Y-100945315D02*
X169983641Y-100973963D01*
X167615330Y-103342274D01*
X167529574Y-103399574D01*
X167472273Y-103485331D01*
X166985328Y-103972276D01*
X166985325Y-103972278D01*
X164799219Y-106158385D01*
X164740097Y-106069903D01*
X164702827Y-106045000D01*
X164740097Y-106020097D01*
X165121798Y-105448842D01*
X165177728Y-105167661D01*
X165206139Y-105162010D01*
X165206140Y-105162010D01*
X165505705Y-105102423D01*
X165845416Y-104875436D01*
X165902716Y-104789680D01*
X169928427Y-100763970D01*
X169964499Y-100945315D01*
X169964499Y-100945315D01*
G37*
X169964499Y-100945315D02*
X169983641Y-100973963D01*
X167615330Y-103342274D01*
X167529574Y-103399574D01*
X167472273Y-103485331D01*
X166985328Y-103972276D01*
X166985325Y-103972278D01*
X164799219Y-106158385D01*
X164740097Y-106069903D01*
X164702827Y-106045000D01*
X164740097Y-106020097D01*
X165121798Y-105448842D01*
X165177728Y-105167661D01*
X165206139Y-105162010D01*
X165206140Y-105162010D01*
X165505705Y-105102423D01*
X165845416Y-104875436D01*
X165902716Y-104789680D01*
X169928427Y-100763970D01*
X169964499Y-100945315D01*
G36*
X173663020Y-104216664D02*
X173041242Y-104838442D01*
X173041242Y-103290000D01*
X172984818Y-103006339D01*
X172824137Y-102765863D01*
X172583661Y-102605182D01*
X172300000Y-102548758D01*
X171313639Y-102548758D01*
X172042322Y-101820075D01*
X172065315Y-101815501D01*
X172586953Y-101466953D01*
X172935501Y-100945315D01*
X173057895Y-100330000D01*
X172935501Y-99714685D01*
X172586953Y-99193047D01*
X172387834Y-99060000D01*
X172586953Y-98926953D01*
X172935501Y-98405315D01*
X173057895Y-97790000D01*
X173032096Y-97660301D01*
X173097721Y-97594676D01*
X173097723Y-97594673D01*
X173663020Y-97029376D01*
X173663020Y-104216664D01*
X173663020Y-104216664D01*
G37*
X173663020Y-104216664D02*
X173041242Y-104838442D01*
X173041242Y-103290000D01*
X172984818Y-103006339D01*
X172824137Y-102765863D01*
X172583661Y-102605182D01*
X172300000Y-102548758D01*
X171313639Y-102548758D01*
X172042322Y-101820075D01*
X172065315Y-101815501D01*
X172586953Y-101466953D01*
X172935501Y-100945315D01*
X173057895Y-100330000D01*
X172935501Y-99714685D01*
X172586953Y-99193047D01*
X172387834Y-99060000D01*
X172586953Y-98926953D01*
X172935501Y-98405315D01*
X173057895Y-97790000D01*
X173032096Y-97660301D01*
X173097721Y-97594676D01*
X173097723Y-97594673D01*
X173663020Y-97029376D01*
X173663020Y-104216664D01*
G36*
X161649903Y-103480097D02*
X161687173Y-103505000D01*
X161649903Y-103529903D01*
X161504175Y-103748000D01*
X161396148Y-103748000D01*
X161294999Y-103727880D01*
X161244464Y-103737932D01*
X161590781Y-103391615D01*
X161649903Y-103480097D01*
X161649903Y-103480097D01*
G37*
X161649903Y-103480097D02*
X161687173Y-103505000D01*
X161649903Y-103529903D01*
X161504175Y-103748000D01*
X161396148Y-103748000D01*
X161294999Y-103727880D01*
X161244464Y-103737932D01*
X161590781Y-103391615D01*
X161649903Y-103480097D01*
G36*
X168688683Y-85880000D02*
X168652879Y-86059999D01*
X168672999Y-86161148D01*
X168673000Y-89520926D01*
X168652879Y-89622080D01*
X168732587Y-90022795D01*
X168909716Y-90287887D01*
X163783846Y-95413758D01*
X161895000Y-95413758D01*
X161611339Y-95470182D01*
X161370863Y-95630863D01*
X161210182Y-95871339D01*
X161153758Y-96155000D01*
X161153758Y-98155000D01*
X161210182Y-98438661D01*
X161358405Y-98660492D01*
X161294999Y-98647880D01*
X161193850Y-98668000D01*
X160894285Y-98727587D01*
X160894284Y-98727588D01*
X160894283Y-98727588D01*
X160838294Y-98764999D01*
X160554574Y-98954574D01*
X160497277Y-99040326D01*
X158190000Y-101347604D01*
X158190000Y-85800000D01*
X168704596Y-85800000D01*
X168688683Y-85880000D01*
X168688683Y-85880000D01*
G37*
X168688683Y-85880000D02*
X168652879Y-86059999D01*
X168672999Y-86161148D01*
X168673000Y-89520926D01*
X168652879Y-89622080D01*
X168732587Y-90022795D01*
X168909716Y-90287887D01*
X163783846Y-95413758D01*
X161895000Y-95413758D01*
X161611339Y-95470182D01*
X161370863Y-95630863D01*
X161210182Y-95871339D01*
X161153758Y-96155000D01*
X161153758Y-98155000D01*
X161210182Y-98438661D01*
X161358405Y-98660492D01*
X161294999Y-98647880D01*
X161193850Y-98668000D01*
X160894285Y-98727587D01*
X160894284Y-98727588D01*
X160894283Y-98727588D01*
X160838294Y-98764999D01*
X160554574Y-98954574D01*
X160497277Y-99040326D01*
X158190000Y-101347604D01*
X158190000Y-85800000D01*
X168704596Y-85800000D01*
X168688683Y-85880000D01*
G36*
X161649903Y-100940097D02*
X161687173Y-100965000D01*
X161649903Y-100989903D01*
X161504175Y-101208000D01*
X161396148Y-101208000D01*
X161294999Y-101187880D01*
X161244465Y-101197932D01*
X161590781Y-100851615D01*
X161649903Y-100940097D01*
X161649903Y-100940097D01*
G37*
X161649903Y-100940097D02*
X161687173Y-100965000D01*
X161649903Y-100989903D01*
X161504175Y-101208000D01*
X161396148Y-101208000D01*
X161294999Y-101187880D01*
X161244465Y-101197932D01*
X161590781Y-100851615D01*
X161649903Y-100940097D01*
G36*
X165095000Y-100742120D02*
X165145536Y-100732068D01*
X164799219Y-101078385D01*
X164740097Y-100989903D01*
X164702827Y-100965000D01*
X164740097Y-100940097D01*
X164885825Y-100722000D01*
X164993851Y-100722000D01*
X165095000Y-100742120D01*
X165095000Y-100742120D01*
G37*
X165095000Y-100742120D02*
X165145536Y-100732068D01*
X164799219Y-101078385D01*
X164740097Y-100989903D01*
X164702827Y-100965000D01*
X164740097Y-100940097D01*
X164885825Y-100722000D01*
X164993851Y-100722000D01*
X165095000Y-100742120D01*
G36*
X168497880Y-97155000D02*
X168518000Y-97256149D01*
X168518000Y-97359602D01*
X166432069Y-99445534D01*
X166442121Y-99395000D01*
X166422001Y-99293851D01*
X166422001Y-99190395D01*
X168507932Y-97104464D01*
X168497880Y-97155000D01*
X168497880Y-97155000D01*
G37*
X168497880Y-97155000D02*
X168518000Y-97256149D01*
X168518000Y-97359602D01*
X166432069Y-99445534D01*
X166442121Y-99395000D01*
X166422001Y-99293851D01*
X166422001Y-99190395D01*
X168507932Y-97104464D01*
X168497880Y-97155000D01*
G36*
X169842105Y-92710000D02*
X169867904Y-92839699D01*
X165236242Y-97471362D01*
X165236242Y-96866154D01*
X169953769Y-92148628D01*
X169842105Y-92710000D01*
X169842105Y-92710000D01*
G37*
X169842105Y-92710000D02*
X169867904Y-92839699D01*
X165236242Y-97471362D01*
X165236242Y-96866154D01*
X169953769Y-92148628D01*
X169842105Y-92710000D01*
G36*
X172463012Y-94030232D02*
X172387834Y-93980000D01*
X172463012Y-93929768D01*
X172463012Y-94030232D01*
X172463012Y-94030232D01*
G37*
X172463012Y-94030232D02*
X172387834Y-93980000D01*
X172463012Y-93929768D01*
X172463012Y-94030232D01*
G36*
X172463011Y-91490232D02*
X172387834Y-91440000D01*
X172463011Y-91389768D01*
X172463011Y-91490232D01*
X172463011Y-91490232D01*
G37*
X172463011Y-91490232D02*
X172387834Y-91440000D01*
X172463011Y-91389768D01*
X172463011Y-91490232D01*
M02*
